<!-- Generator: Adobe Illustrator 25.2.1, SVG Export Plug-In  -->
<svg version="1.1" xmlns="http://www.w3.org/2000/svg" xmlns:xlink="http://www.w3.org/1999/xlink" x="0px" y="0px" width="40px"
	 height="40px" viewBox="0 0 40 40" style="overflow:visible;enable-background:new 0 0 40 40;" xml:space="preserve">
<style type="text/css">
	.st0{fill:#FFFFFF;}
</style>
<defs>
</defs>
<path class="st0" d="M5.9,40h13V25.8h-4.7v-4.7h4.7v-5.9c0-3.2,2.6-5.9,5.9-5.9h5.9v4.7h-4.7c-1.3,0-2.3,1.1-2.3,2.3v4.7h6.8
	l-0.8,4.7h-6V40h10.5c3.2,0,5.9-2.6,5.9-5.9V5.9C40,2.6,37.4,0,34.1,0H5.9C2.6,0,0,2.6,0,5.9v28.3C0,37.4,2.6,40,5.9,40z M2.3,5.9
	c0-1.9,1.6-3.5,3.5-3.5h28.3c1.9,0,3.5,1.6,3.5,3.5v28.3c0,1.9-1.6,3.5-3.5,3.5h-8.2v-9.5h5.7l1.6-9.4h-7.2v-2.3h7V7h-8.2
	c-4.5,0-8.2,3.7-8.2,8.2v3.5h-4.7v9.4h4.7v9.5H5.9c-1.9,0-3.5-1.6-3.5-3.5V5.9z"/>
</svg>
