<!-- Generator: Adobe Illustrator 25.2.1, SVG Export Plug-In  -->
<svg version="1.1" xmlns="http://www.w3.org/2000/svg" xmlns:xlink="http://www.w3.org/1999/xlink" x="0px" y="0px" width="40px"
	 height="40px" viewBox="0 0 40 40" style="overflow:visible;enable-background:new 0 0 40 40;" xml:space="preserve">
<style type="text/css">
	.st0{fill:#FFFFFF;}
</style>
<defs>
</defs>
<g>
	<path class="st0" d="M29.2,0H10.8C4.9,0,0,4.9,0,10.8v18.3C0,35.1,4.9,40,10.8,40h18.3c6,0,10.8-4.9,10.8-10.8V10.8
		C40,4.9,35.1,0,29.2,0z M37.7,29.2c0,4.7-3.8,8.5-8.5,8.5H10.8c-4.7,0-8.5-3.8-8.5-8.5V10.8c0-4.7,3.8-8.5,8.5-8.5h18.3
		c4.7,0,8.5,3.8,8.5,8.5V29.2z"/>
	<path class="st0" d="M20,9.1C14,9.1,9.1,14,9.1,20S14,30.9,20,30.9S30.9,26,30.9,20S26,9.1,20,9.1z M20,28.6
		c-4.7,0-8.6-3.9-8.6-8.6c0-4.7,3.9-8.6,8.6-8.6c4.7,0,8.6,3.9,8.6,8.6C28.6,24.7,24.7,28.6,20,28.6z"/>
	<path class="st0" d="M31.2,5.2c-1.8,0-3.2,1.4-3.2,3.2c0,1.8,1.4,3.2,3.2,3.2s3.2-1.4,3.2-3.2S33,5.2,31.2,5.2z M31.2,9.3
		c-0.5,0-0.9-0.4-0.9-0.9c0-0.5,0.4-0.9,0.9-0.9c0.5,0,0.9,0.4,0.9,0.9C32.1,8.9,31.7,9.3,31.2,9.3z"/>
</g>
</svg>
