<!-- Generator: Adobe Illustrator 25.2.1, SVG Export Plug-In  -->
<svg version="1.1" xmlns="http://www.w3.org/2000/svg" xmlns:xlink="http://www.w3.org/1999/xlink" x="0px" y="0px" width="40px"
	 height="40px" viewBox="0 0 40 40" style="overflow:visible;enable-background:new 0 0 40 40;" xml:space="preserve">
<style type="text/css">
	.st0{fill:#FFFFFF;}
</style>
<defs>
</defs>
<g>
	<g id="post-twitter_1_">
		<path class="st0" d="M36,0H4C1.8,0,0,1.8,0,4v32c0,2.2,1.8,4,4,4h32c2.2,0,4-1.8,4-4V4C40,1.8,38.2,0,36,0z M31.4,14.6
			c-0.2,9.2-6,15.6-14.8,16c-3.6,0.2-6.2-1-8.6-2.4c2.6,0.4,6-0.6,7.8-2.2c-2.6-0.2-4.2-1.6-5-3.8c0.8,0.2,1.6,0,2.2,0
			c-2.4-0.8-4-2.2-4.2-5.4c0.6,0.4,1.4,0.6,2.2,0.6c-1.8-1-3-4.8-1.6-7.2c2.6,2.8,5.8,5.2,11,5.6c-1.4-5.6,6.2-8.6,9.2-4.8
			C31,10.8,32,10.2,33,9.8c-0.4,1.4-1.2,2.2-2.2,3c1-0.2,2-0.4,2.8-0.8C33.4,13,32.4,13.8,31.4,14.6z"/>
	</g>
</g>
</svg>
