<!-- Generator: Adobe Illustrator 25.2.1, SVG Export Plug-In  -->
<svg version="1.1" xmlns="http://www.w3.org/2000/svg" xmlns:xlink="http://www.w3.org/1999/xlink" x="0px" y="0px" width="33.8px"
	 height="40px" viewBox="0 0 33.8 40" style="overflow:visible;enable-background:new 0 0 33.8 40;" xml:space="preserve">
<style type="text/css">
	.st0{fill:#FFFFFF;}
</style>
<defs>
</defs>
<g>
	<g>
		<path class="st0" d="M33.2,20.3c-0.4-1.8-1.9-3.1-3.7-3.3c-4.2-0.5-8.4-0.5-12.6-0.5c-4.2,0-8.5,0-12.6,0.5
			c-1.8,0.2-3.2,1.5-3.6,3.3C0,22.8,0,25.6,0,28.2s0,5.4,0.6,8C1,38,2.5,39.3,4.2,39.5C8.4,40,12.7,40,16.9,40c4.2,0,8.5,0,12.6-0.5
			c1.8-0.2,3.2-1.5,3.6-3.3c0.6-2.6,0.6-5.3,0.6-8C33.8,25.6,33.8,22.8,33.2,20.3z M9.6,22.2H7.2v13H4.9v-13H2.5v-2.1h7.1V22.2z
			 M15.8,35.2h-2V34c-0.8,0.9-1.6,1.4-2.3,1.4c-0.7,0-1.1-0.3-1.3-0.8c-0.1-0.3-0.2-0.9-0.2-1.7V24h2v8.3c0,0.5,0,0.7,0,0.8
			c0,0.3,0.2,0.5,0.5,0.5c0.4,0,0.8-0.3,1.3-1V24h2L15.8,35.2L15.8,35.2z M23.5,31.8c0,1-0.1,1.8-0.2,2.3c-0.3,0.8-0.8,1.3-1.6,1.3
			c-0.7,0-1.4-0.4-2.1-1.2v1.1h-2V20.1h2V25c0.7-0.8,1.4-1.2,2.1-1.2c0.8,0,1.4,0.4,1.6,1.3c0.1,0.5,0.2,1.2,0.2,2.3V31.8z M31.2,30
			h-4.1v2c0,1,0.3,1.6,1,1.6c0.5,0,0.8-0.3,0.9-0.8c0-0.1,0-0.6,0-1.4h2.1v0.3c0,0.7,0,1.1,0,1.3c-0.1,0.5-0.2,0.9-0.5,1.2
			c-0.6,0.8-1.4,1.2-2.5,1.2c-1.1,0-1.9-0.4-2.5-1.2c-0.4-0.6-0.7-1.5-0.7-2.6v-3.9c0-1.2,0.2-2.1,0.6-2.7c0.6-0.8,1.4-1.2,2.4-1.2
			c1,0,1.8,0.4,2.4,1.2c0.4,0.6,0.6,1.4,0.6,2.7L31.2,30L31.2,30z"/>
		<path class="st0" d="M28.2,25.7c-0.7,0-1,0.5-1,1.6v1h2v-1C29.2,26.2,28.9,25.7,28.2,25.7z"/>
		<path class="st0" d="M20.6,25.7c-0.3,0-0.7,0.2-1,0.5V33c0.3,0.3,0.7,0.5,1,0.5c0.6,0,0.9-0.5,0.9-1.5v-4.8
			C21.5,26.2,21.2,25.7,20.6,25.7z"/>
		<path class="st0" d="M21.8,15.4c0.8,0,1.5-0.5,2.4-1.4v1.2h2.1V3.9h-2.1v8.7c-0.5,0.6-0.9,1-1.3,1c-0.3,0-0.4-0.2-0.5-0.5
			c0-0.1,0-0.3,0-0.8V3.9h-2.1v9c0,0.8,0.1,1.3,0.2,1.7C20.6,15.2,21.1,15.4,21.8,15.4z"/>
		<path class="st0" d="M7.4,9.1v6.2h2.3V9.1L12.4,0h-2.3L8.6,6L6.9,0H4.5C5,1.4,5.5,2.8,6,4.3C6.7,6.4,7.2,8,7.4,9.1z"/>
		<path class="st0" d="M15.5,15.4c1,0,1.8-0.4,2.4-1.2c0.4-0.6,0.6-1.5,0.6-2.7v-4c0-1.2-0.2-2.1-0.6-2.7c-0.6-0.8-1.4-1.2-2.4-1.2
			c-1,0-1.8,0.4-2.4,1.2c-0.4,0.6-0.6,1.5-0.6,2.7v4c0,1.2,0.2,2.1,0.6,2.7C13.7,15,14.5,15.4,15.5,15.4z M14.5,7.2
			c0-1.1,0.3-1.6,1-1.6s1,0.5,1,1.6V12c0,1.1-0.3,1.6-1,1.6s-1-0.5-1-1.6V7.2z"/>
	</g>
</g>
</svg>
