<svg xmlns="http://www.w3.org/2000/svg" viewBox="0 0 111.07 82.23">
  <defs>
    <style>
      .cls-1 {
        fill: #333;
      }

      .cls-2 {
        fill: #29aae1;
      }

      .cls-3 {
        fill: #0ebbdb;
      }

      .cls-4 {
        fill: #0773c7;
      }

      .cls-5 {
        fill: #03a0cb;
      }

      .cls-6 {
        fill: #014db0;
      }

      .cls-7 {
        fill: #050505;
      }

      .cls-8 {
        fill: #3bdaec;
      }

      .cls-9 {
        fill: #18cced;
      }

      .cls-10 {
        fill: #15d3ef;
      }

      .cls-11 {
        fill: #21bbe7;
      }

      .cls-12 {
        fill: #27aee3;
      }

      .cls-13 {
        fill: #22b8e6;
      }

      .cls-14 {
        fill: #1cc4ea;
      }

      .cls-15 {
        fill: #0be7f6;
      }

      .cls-16 {
        fill: #0aecf8;
      }

      .cls-17 {
        fill: #02fbfd;
      }

      .cls-18 {
        fill: #05f5fb;
      }

      .cls-19 {
        fill: #0fdef3;
      }

      .cls-20 {
        fill: #14d9f1;
      }

      .cls-21 {
        fill: #10e1f4;
      }

      .cls-22 {
        fill: #1ec4ea;
      }

      .cls-23 {
        fill: #343434;
      }

      .cls-24 {
        fill: #353535;
      }

      .cls-25 {
        font-size: 12.43px;
        fill: #fff;
        font-family: ErasITC-Demi, Eras Demi ITC;
        font-weight: 300;
      }
    </style>
  </defs>
  <g id="Layer_2" data-name="Layer 2">
    <g id="VIEWS">
      <g id="HOME_PAGE" data-name="HOME PAGE">
        <g id="_600px" data-name="600px">
          <g id="Comments">
            <g id="NAVBAR">
              <g id="Menu_Opening" data-name="Menu Opening">
                <g id="LOGO">
                  <g>
                    <path class="cls-1" d="M27.73,30l-1.06-3.2,57-16.66,1,3.24Z"/>
                    <path class="cls-2" d="M32.7,21.15l-1.93.58A22.78,22.78,0,0,1,28.7,16.6,11.17,11.17,0,0,1,29.48,9,12.83,12.83,0,0,1,37.26,1.9a11.46,11.46,0,0,1,6.55-.41,14.83,14.83,0,0,1,2.45,1l-1.4,4a26.91,26.91,0,0,1-3.19,5.9,24.61,24.61,0,0,1-5.55,6c-.93.7-1.91,1.35-2.85,2A4.24,4.24,0,0,0,32.7,21.15Zm-1.65-11v.29c0,1.31.76,1.84,2,1.58.83-.18,1.23-.85,1.83-1.31A5.67,5.67,0,0,0,36.8,7.15a1.64,1.64,0,0,0-2.32-1.8A4.48,4.48,0,0,0,32.42,7,4.9,4.9,0,0,0,31.05,10.1Z"/>
                    <path class="cls-3" d="M48,39.39l-1.78-1.17c.11-.25.2-.51.32-.75a40.67,40.67,0,0,0,2-4.08c.79-2.11,1.36-4.3,2-6.46l1.74-.51q7-2.07,14-4.12c1.38-.41,2.78-.77,4.18-1.15-.41.73-.79,1.48-1.23,2.19a33.93,33.93,0,0,1-2,3,42,42,0,0,1-2.89,3.36,25.72,25.72,0,0,1-2.82,2.61,42.77,42.77,0,0,1-3.81,2.61,34.26,34.26,0,0,1-4.16,2.37C51.83,38.11,49.91,38.7,48,39.39Z"/>
                    <path class="cls-4" d="M32.7,21.15a4.24,4.24,0,0,1,.57-.62c.94-.69,1.92-1.34,2.85-2a24.61,24.61,0,0,0,5.55-6,26.91,26.91,0,0,0,3.19-5.9l1.4-4A20.06,20.06,0,0,1,49.42,4.6c1.33,1.26,2.45,2.74,3.66,4.13.28.33.54.7.83,1.09,2.29-3.56,5-6.61,9.19-8-.55,1-1.08,2.05-1.65,3.07A21.18,21.18,0,0,1,58.16,9.4c-.61.63-1.2,1.28-1.85,1.87-.94.87-1.89,1.73-2.9,2.51s-2,1.4-3,2.1c-3.1.93-6.19,1.87-9.29,2.78-2.38.7-4.77,1.36-7.15,2.05C33.53,20.83,33.12,21,32.7,21.15Z"/>
                    <path class="cls-5" d="M48,39.39c1.88-.69,3.8-1.28,5.63-2.08a34.26,34.26,0,0,0,4.16-2.37,42.77,42.77,0,0,0,3.81-2.61,25.72,25.72,0,0,0,2.82-2.61,42,42,0,0,0,2.89-3.36,33.93,33.93,0,0,0,2-3c.44-.71.82-1.46,1.23-2.19l7.73-2.44.13.16-1.86,3.75a2.52,2.52,0,0,1-.24.33c-.91,1.34-1.77,2.71-2.74,4a24.63,24.63,0,0,1-2.22,2.47c-1.81,1.8-3.58,3.64-5.49,5.32A66.42,66.42,0,0,1,60.35,39c-1.28.9-2.7,1.6-4.06,2.39a4.65,4.65,0,0,1-4.86,0C50.27,40.77,49.16,40.06,48,39.39Z"/>
                    <path class="cls-6" d="M50.39,15.88c1-.7,2-1.35,3-2.1s2-1.64,2.9-2.51C57,10.68,57.55,10,58.16,9.4a21.18,21.18,0,0,0,3.29-4.52c.57-1,1.1-2,1.65-3.07a7.73,7.73,0,0,1,4.05-.61,13.23,13.23,0,0,1,7.5,3A11.1,11.1,0,0,1,77.75,8l-2.82.82c-2.86.81-5.72,1.61-8.58,2.44-5.28,1.53-10.56,3.09-15.85,4.63Z"/>
                    <path class="cls-7" d="M82,1.28,86.35,0c.42,1.31.83,2.61,1.25,3.9q1,3.23,2.08,6.44.84,2.61,1.7,5.2c.55,1.68,1.12,3.35,1.71,5.12L88.75,22c-.63-2-1.25-3.89-1.87-5.8S85.65,12.34,85,10.42c-.51-1.55-1-3.1-1.53-4.65S82.49,2.84,82,1.28Z"/>
                    <path class="cls-7" d="M29.15,38.6l-4.43,1.22-.37-1.14q-1.14-3.76-2.3-7.52c-.57-1.85-1.13-3.69-1.7-5.53s-1.09-3.52-1.65-5.28c-.13-.39-.32-.76-.49-1.18l4.44-1.23L25,25.72q.82,2.7,1.66,5.4c.51,1.65,1,3.3,1.54,4.94C28.51,36.9,28.83,37.72,29.15,38.6Z"/>
                    <path class="cls-7" d="M87.84,2.16,92.22.74c1.78,5.4,3.52,10.71,5.29,16.1l-4.43,1.28c-.41-1.35-.8-2.67-1.21-4Q91,11.28,90,8.42C89.48,6.78,89,5.14,88.4,3.5,88.26,3.05,88,2.63,87.84,2.16Z"/>
                    <path class="cls-7" d="M13.82,23l4.39-1.22c.51,1.7,1,3.38,1.53,5.07.65,2.11,1.3,4.23,2,6.35.48,1.51,1,3,1.49,4.61L18.79,39c-.56-1.86-1.09-3.7-1.65-5.53s-1.21-3.93-1.83-5.89C14.83,26.05,14.33,24.55,13.82,23Z"/>
                    <path class="cls-8" d="M50.62,26.93c-.67,2.16-1.24,4.35-2,6.46a40.67,40.67,0,0,1-2,4.08c-.12.24-.21.5-.32.75a72.43,72.43,0,0,1-8.79-7.49c.95-.3,1.74-.58,2.54-.81q4.78-1.38,9.59-2.73C49.93,27.09,50.28,27,50.62,26.93Z"/>
                    <path class="cls-9" d="M64.4,67.31a2.23,2.23,0,0,1-1.3-2c0-3.21,0-6.43,0-9.64a2.48,2.48,0,0,1,2.59-2.56c2.29,0,4.58.16,6.87.26a1.5,1.5,0,0,1,.27.08,13.06,13.06,0,0,0,0,1.4c0,.45-.15.53-.54.53-1.8,0-3.61,0-5.41,0-1.16,0-1.31.17-1.31,1.34V59.3l6.42.27c0,.52,0,1,0,1.56,0,.11-.33.27-.51.28-1.8.07-3.6.1-5.41.15-.13,0-.26,0-.46,0,0,1.07,0,2.12,0,3.17,0,.22.28.44.43.66s.06.19,0,.21c-.54.37-1.08.74-1.65,1.11Z"/>
                    <path class="cls-10" d="M51.92,58.34l3.15,4.79.15-.08V53.13h2.37V67.6a18.5,18.5,0,0,1-2.11,0,1.39,1.39,0,0,1-.74-.59c-.78-1.14-1.5-2.32-2.27-3.46s-1.69-2.43-2.53-3.64a.89.89,0,0,0,.22-.16c.42-.54.76-1.22,1.64-.79,0,0,.11,0,.07,0Z"/>
                    <path class="cls-11" d="M83,59.41c.78,0,1.57,0,2.35,0a2.57,2.57,0,0,1,2.57,2.31A13.89,13.89,0,0,1,88,65a2.73,2.73,0,0,1-2.64,2.69,21.36,21.36,0,0,1-6.72-.36.51.51,0,0,1-.33-.37c0-.47,0-.94,0-1.5.47,0,.89.06,1.31.07,1.53,0,3.06.11,4.59.06,1.16,0,1.49-.49,1.49-1.65,0-2.1-.15-2.21-2.28-2.26-1.24,0-2.48-.21-3.71-.32a2,2,0,0,0,1.56-.64A11.72,11.72,0,0,1,83,59.41Z"/>
                    <path class="cls-12" d="M98.45,59.4c.93.08,1.87.1,2.79.24a2,2,0,0,1,1.56,1.46,6.55,6.55,0,0,1,0,4.79,2.79,2.79,0,0,1-2.45,1.75,21.6,21.6,0,0,1-6.66-.35.58.58,0,0,1-.34-.42,12.89,12.89,0,0,1,0-1.4H94.6c1.51,0,3,.11,4.52.07,1.25,0,1.58-.43,1.64-1.66v-.35c-.08-1.7-.28-1.89-2-1.9-.94,0-1.87,0-2.81-.08.54-.4,1.1-.78,1.61-1.21A8.92,8.92,0,0,0,98.45,59.4Z"/>
                    <path class="cls-13" d="M98.45,59.4a8.92,8.92,0,0,1-.89,1c-.51.43-1.07.81-1.61,1.21a3.13,3.13,0,0,1-3.13-3.4c0-.45,0-.9,0-1.35,0-2.49,1.23-3.8,3.66-3.81,1.87,0,3.74.25,5.62.38.4,0,.54.19.51.59s0,.9,0,1.4c-.27,0-.52,0-.76,0-1.8,0-3.6-.08-5.4-.08a1,1,0,0,0-1.05,1,1,1,0,0,0,0,.17c-.16,2.53,0,3,2.51,2.93Z"/>
                    <path class="cls-14" d="M83,59.41a11.72,11.72,0,0,0-1.74,1.26,2,2,0,0,1-1.56.64,2.71,2.71,0,0,1-1.85-2.4,11.6,11.6,0,0,1,0-3.17C78.22,54,79.16,53,81.39,53a56.37,56.37,0,0,1,5.79.43.57.57,0,0,1,.39.42,13.19,13.19,0,0,1,0,1.56l-1.17-.06c-1.45-.05-2.9-.13-4.35-.14s-1.75.38-1.77,1.8c0,2,.12,2.34,2.37,2.37C82.79,59.38,82.9,59.4,83,59.41Z"/>
                    <path class="cls-15" d="M34.23,61.27V55.5a2.6,2.6,0,0,0-.65-.17c-1.21,0-2.42,0-3.67,0V53.13h11V55.3H36.62a3.45,3.45,0,0,0-.14.42c-.26,1.24.4,2.53-.39,3.81-.31.49-.47.8-1,.77L34.44,62l-.17-.05Z"/>
                    <path class="cls-16" d="M22.59,53.08c.75,0,1.44,0,2.11,0,.12,0,.29.35.29.55,0,2.64,0,5.29,0,7.94,0,1.8,0,3.61,0,5.41,0,.47-.14.64-.61.59a5.61,5.61,0,0,0-.82,0c-1,0-1,0-1-1V53.08Z"/>
                    <path class="cls-17" d="M7.72,55.5a2.26,2.26,0,0,1,2.44-2.38c2.27-.06,4.55.13,6.82.24.15,0,.39.29.41.46.05.48,0,1,0,1.55h-1c-1.67,0-3.34,0-5,0a4.93,4.93,0,0,0-1.35.5c0,1-.09,2-.09,3,0,.19.24.38.28.59s.06.53-.06.65a22.14,22.14,0,0,1-1.68,1.52,3.36,3.36,0,0,1-.56.31,2.46,2.46,0,0,1-.22-.68C7.72,59.34,7.72,57.42,7.72,55.5Z"/>
                    <path class="cls-18" d="M7.72,55.5c0,1.92,0,3.84,0,5.75a2.46,2.46,0,0,0,.22.68,3.36,3.36,0,0,0,.56-.31A22.14,22.14,0,0,0,10.2,60.1c.12-.12.1-.44.06-.65s-.28-.4-.28-.59c0-1,0-2,.09-3v3.38l6.34.31v1.89h-6.3c0,.35,0,.56,0,.76,0,1.61,0,3.22,0,4.83,0,.39-.09.6-.52.54a1.4,1.4,0,0,0-.29,0c-1.63,0-1.63,0-1.63-1.58V56.31A7.43,7.43,0,0,1,7.72,55.5Z"/>
                    <path class="cls-19" d="M51.92,58.34l-.05.58s0,0-.07,0c-.88-.43-1.22.25-1.64.79a.89.89,0,0,1-.22.16l-1.33-2.22-.41-.13a2.15,2.15,0,0,0-.19.71,8.1,8.1,0,0,0,.32,1.14l-.24.07-.31-.65C47,59.17,47,60.26,46,60.67c0-2.5,0-4.84,0-7.19,0-.1.25-.29.39-.29.72,0,1.44.07,2.16.11q1.42,2.23,2.86,4.46C51.59,58,51.76,58.14,51.92,58.34Z"/>
                    <path class="cls-20" d="M48.59,53.3c-.72,0-1.44-.1-2.16-.11-.14,0-.39.19-.39.29,0,2.35,0,4.69,0,7.19.95-.41.95-1.5,1.76-1.86l.31.65.24-.07A8.1,8.1,0,0,1,48,58.25a2.15,2.15,0,0,1,.19-.71l.41.13a3,3,0,0,0-.13.65q0,4.32,0,8.64c0,.48-.12.68-.62.64s-1.47.2-1.8-.12-.15-1.17-.15-1.78c0-4,0-7.92,0-11.88,0-.65.2-.81.79-.75s.94,0,1.41,0A1.4,1.4,0,0,1,48.59,53.3Z"/>
                    <path class="cls-1" d="M55.3,75.32a5.12,5.12,0,0,1-.78,3.17c-.25.32-.59.75-.93.79a18.74,18.74,0,0,1-3.09.08c-1-.06-1.42-.88-1.63-1.74a10.28,10.28,0,0,1,0-4.55,2,2,0,0,1,1.92-1.77,12,12,0,0,1,2.68.08c1.06.17,1.37,1.14,1.62,2A10.17,10.17,0,0,1,55.3,75.32Zm-5.93.1h.05c0,.39,0,.79.06,1.17a2,2,0,0,0,1.87,2.08,2.27,2.27,0,0,0,2.93-2,22,22,0,0,0,0-3c-.07-.93-.45-1.42-1.19-1.51a8.76,8.76,0,0,0-2.23,0,1.3,1.3,0,0,0-1.16,1.08C49.54,73.91,49.46,74.67,49.37,75.42Z"/>
                    <path class="cls-1" d="M37,75.48a6.76,6.76,0,0,1-.92,3.14,1.4,1.4,0,0,1-.9.67,17.67,17.67,0,0,1-2.91.11c-1.11,0-1.56-.86-1.79-1.8a10.26,10.26,0,0,1,0-4.48,2,2,0,0,1,1.93-1.82,16,16,0,0,1,2.68.08,1.64,1.64,0,0,1,1.36,1.39C36.68,73.66,36.82,74.58,37,75.48Zm-6-.06c.07,2.34.19,2.57,1.87,3.22a2.32,2.32,0,0,0,3-1.77,23.94,23.94,0,0,0,0-3.28c-.06-.92-.44-1.4-1.2-1.5a8.68,8.68,0,0,0-2.22,0,1.25,1.25,0,0,0-1.16,1.08C31.17,73.91,31.08,74.67,31,75.42Z"/>
                    <path class="cls-21" d="M34.23,61.27l0,.67.17.05.68-1.69c.5,0,.66-.28,1-.77.79-1.28.13-2.57.39-3.81a3.45,3.45,0,0,1,.14-.42c0,1.49,0,3,0,4.47,0,2.58,0,5.17,0,7.8H34.17c0-1.41,0-2.83,0-4.26C34.18,62.63,34.21,62,34.23,61.27Z"/>
                    <path class="cls-1" d="M45.26,71.39V72H42a1.27,1.27,0,0,0-1.36,1.21,21.94,21.94,0,0,0,0,4c.14,1.28,1.1,1.74,2.33,1.35.52-.16,1.3-.15,1.5-.49s.1-1.18.11-1.79a2,2,0,0,0,0-.31H42.69l-.15-.18c.16-.16.31-.43.49-.45.78-.12,1.58-.16,2.4-.24v4.5l-1-.42c-.8.1-1.68.26-2.56.33a2.11,2.11,0,0,1-2.11-1.68,9.88,9.88,0,0,1,0-5,2.49,2.49,0,0,1,2.13-1.65C43,71.28,44.13,71.32,45.26,71.39Z"/>
                    <path class="cls-22" d="M64.4,67.31l0-.55c.57-.37,1.11-.74,1.65-1.11,0,0,0-.14,0-.21,2,0,4,0,6.07,0,.62,0,.8.18.73.76a10.41,10.41,0,0,0,0,1.13c-1.5.08-3,.17-4.39.21-1.14,0-2.27,0-3.4,0A2,2,0,0,1,64.4,67.31Z"/>
                    <path class="cls-1" d="M75.62,71.29c1.29,0,2.52-.05,3.75,0A1.51,1.51,0,0,1,81,72.86a7.24,7.24,0,0,1,0,1.86A1.38,1.38,0,0,1,79.53,76c-1,0-2,0-3.12,0v3.37h-.79Zm.81.76v3.24c1,0,1.93,0,2.89,0a.83.83,0,0,0,.43-.17c.78-.53.55-1.33.51-2.07a1,1,0,0,0-1.05-1C78.3,72,77.38,72.05,76.43,72.05Z"/>
                    <path class="cls-23" d="M85.28,75h3.77v.72H85.29a23.15,23.15,0,0,0,0,2.38.85.85,0,0,0,.64.53c1.13.06,2.26,0,3.48,0l.11.64c-1.43,0-2.79.12-4.15.11a.94.94,0,0,1-1-1c0-2,0-4,0-5.94,0-.79.44-1.18,1.26-1.18,1.27,0,2.54.1,3.83.15V72c-1.15,0-2.29,0-3.42,0-.57,0-.83.19-.8.78S85.28,74.19,85.28,75Z"/>
                    <path class="cls-1" d="M69.82,79.42H69c0-.66,0-1.3,0-1.94a3.72,3.72,0,0,0-.58-2.16c-.44-.82-.86-1.65-1.29-2.46-.27-.51-.56-1-.86-1.54a.92.92,0,0,1,1.29.57c.55,1.22,1.21,2.39,1.87,3.67.64-1.17,1.24-2.3,1.87-3.41.3-.51.58-1.13,1.44-.81-.94,1.68-1.88,3.35-2.8,5a1.1,1.1,0,0,0-.14.52C69.81,77.73,69.82,78.57,69.82,79.42Z"/>
                    <path class="cls-24" d="M63.73,71.3V72H61.15v7.39h-.82V72.06H57.82V71.3Z"/>
                    <path class="cls-24" d="M22.52,71.28h.78v6.29c0,.88.07,1,1,1h3.34l.05.84c-1.47,0-2.91,0-4.34,0-.27,0-.7-.56-.73-.88-.11-1.11-.07-2.23-.08-3.35S22.52,72.59,22.52,71.28Z"/>
                    <path class="cls-1" d="M15.91,32.85l-2.26.62-1-3.25,2.21-.61Z"/>
                    <path class="cls-1" d="M95.33,7l2.08-.76,1.17,3.21-2.28.66Z"/>
                    <path class="cls-21" d="M34.23,55.5v0Z"/>
                    <path class="cls-8" d="M31.05,10.1A4.9,4.9,0,0,1,32.42,7a4.48,4.48,0,0,1,2.06-1.66,1.64,1.64,0,0,1,2.32,1.8,5.67,5.67,0,0,1-1.89,3.51c-.6.46-1,1.13-1.83,1.31-1.27.26-2-.27-2-1.58Z"/>
                  </g>
                  <text class="cls-25" transform="translate(22.42 79.13)">LOGOTYPE</text>
                </g>
              </g>
            </g>
          </g>
        </g>
      </g>
    </g>
  </g>
</svg>
