<!-- Generator: Adobe Illustrator 25.2.1, SVG Export Plug-In  -->
<svg version="1.1" xmlns="http://www.w3.org/2000/svg" xmlns:xlink="http://www.w3.org/1999/xlink" x="0px" y="0px" width="50px"
	 height="50px" viewBox="0 0 50 50" style="overflow:visible;enable-background:new 0 0 50 50;" xml:space="preserve">
<style type="text/css">
	.st0{fill:#282829;}
</style>
<defs>
</defs>
<g id="MENU_ICON_copy">
	<g>
		<path class="st0" d="M47.5,7.7h-45C1.1,7.7,0,6.6,0,5.2V2.5C0,1.1,1.1,0,2.5,0l45,0C48.9,0,50,1.1,50,2.5v2.7
			C50,6.6,48.9,7.7,47.5,7.7z"/>
		<path class="st0" d="M47.5,21.8h-45c-1.4,0-2.5-1.1-2.5-2.5v-2.7c0-1.4,1.1-2.5,2.5-2.5h45c1.4,0,2.5,1.1,2.5,2.5v2.7
			C50,20.7,48.9,21.8,47.5,21.8z"/>
		<path class="st0" d="M47.5,35.9h-45c-1.4,0-2.5-1.1-2.5-2.5v-2.7c0-1.4,1.1-2.5,2.5-2.5h45c1.4,0,2.5,1.1,2.5,2.5v2.7
			C50,34.8,48.9,35.9,47.5,35.9z"/>
		<path class="st0" d="M47.5,50h-45C1.1,50,0,48.9,0,47.5v-2.7c0-1.4,1.1-2.5,2.5-2.5h45c1.4,0,2.5,1.1,2.5,2.5v2.7
			C50,48.9,48.9,50,47.5,50z"/>
	</g>
</g>
</svg>
