<!-- Generator: Adobe Illustrator 25.2.1, SVG Export Plug-In  -->
<svg version="1.1" xmlns="http://www.w3.org/2000/svg" xmlns:xlink="http://www.w3.org/1999/xlink" x="0px" y="0px" width="15.7px"
	 height="35.1px" viewBox="0 0 15.7 35.1" style="overflow:visible;enable-background:new 0 0 15.7 35.1;" xml:space="preserve">
<defs>
</defs>
<g>
	<g>
		<path d="M5.2,2.2v0.5H4.1c-1.3,0-2.4,1.4-2.4,3.1v0.8C0.7,6.8,0,8,0,9.3c0,1.6,1,2.8,2.2,2.8h3.7v11H2.2C1,23.1,0,24.3,0,25.9
			c0,1.3,0.7,2.4,1.6,2.7v0.8c0,1.7,1.1,3.1,2.4,3.1h1.2V33c0,1.2,0.8,2.2,1.7,2.2h1.9c0.9,0,1.7-1,1.7-2.2v-0.5h1.2
			c1.3,0,2.4-1.4,2.4-3.1v-0.8c0.9-0.3,1.6-1.4,1.6-2.7c0-1.6-1-2.8-2.2-2.8H9.8v-9.4c0-0.3-0.2-0.5-0.4-0.5S9,13.4,9,13.6v9.4H6.7
			v-11h6.8c1.2,0,2.2-1.3,2.2-2.8c0-1.3-0.7-2.4-1.6-2.7V5.8c0-1.7-1.1-3.1-2.4-3.1h-1.2V2.2C10.5,1,9.8,0,8.8,0H6.9
			C6,0,5.2,1,5.2,2.2z M9.7,32.4V33h0c0,0.6-0.4,1.1-0.9,1.1H6.9C6.4,34.1,6,33.6,6,33v-0.5H9.7z M13.5,24.1c0.8,0,1.4,0.8,1.4,1.8
			c0,1-0.6,1.8-1.4,1.8H5.3c-0.2,0-0.4,0.2-0.4,0.5c0,0.3,0.2,0.5,0.4,0.5h7.9v0.7c0,1.1-0.7,2-1.6,2H4.1c-0.9,0-1.6-0.9-1.6-2v-0.7
			h1.1c0.2,0,0.4-0.2,0.4-0.5c0-0.3-0.2-0.5-0.4-0.5H2.2c-0.8,0-1.4-0.8-1.4-1.8c0-1,0.6-1.8,1.4-1.8L13.5,24.1L13.5,24.1z
			 M13.5,7.5c0.8,0,1.4,0.8,1.4,1.8s-0.6,1.8-1.4,1.8H2.2c-0.8,0-1.4-0.8-1.4-1.8s0.6-1.8,1.4-1.8H13.5z M11.7,3.7
			c0.9,0,1.6,0.9,1.6,2v0.7H2.5V5.8c0-1.1,0.7-2,1.6-2H11.7z M8.8,1c0.5,0,0.9,0.5,0.9,1.1v0.5H6V2.2C6,1.5,6.4,1,6.9,1H8.8z"/>
	</g>
</g>
</svg>
