<!-- Generator: Adobe Illustrator 25.2.1, SVG Export Plug-In  -->
<svg version="1.1" xmlns="http://www.w3.org/2000/svg" xmlns:xlink="http://www.w3.org/1999/xlink" x="0px" y="0px" width="960px"
	 height="430px" viewBox="0 0 960 430" style="overflow:visible;enable-background:new 0 0 960 430;" xml:space="preserve">
<style type="text/css">
	.st0{opacity:0.8;fill:url(#SVGID_1_);}
	.st1{opacity:0.8;fill:url(#SVGID_2_);}
	.st2{opacity:0.8;fill:url(#SVGID_3_);}
	.st3{fill:url(#SVGID_4_);}
	.st4{opacity:0.8;fill:url(#SVGID_5_);}
	.st5{opacity:0.8;fill:url(#SVGID_6_);}
	.st6{opacity:0.8;fill:url(#SVGID_7_);}
	.st7{fill:url(#SVGID_8_);}
</style>
<defs>
</defs>
<g id="HEADER_1_">
	<linearGradient id="SVGID_1_" gradientUnits="userSpaceOnUse" x1="1.1681" y1="205.082" x2="960" y2="205.082">
		<stop  offset="0" style="stop-color:#FF0000"/>
		<stop  offset="1" style="stop-color:#FBB03B"/>
	</linearGradient>
	<polygon class="st0" points="960,356.5 460.4,382.7 1.2,410.2 1.2,0 960,0 	"/>
	<linearGradient id="SVGID_2_" gradientUnits="userSpaceOnUse" x1="0" y1="212.1146" x2="959.5042" y2="212.1146">
		<stop  offset="0" style="stop-color:#FF0000"/>
		<stop  offset="1" style="stop-color:#FBB03B"/>
	</linearGradient>
	<polygon class="st1" points="958,370.6 458.8,396.8 0,424.2 0.7,0 959.5,0 	"/>
	<linearGradient id="SVGID_3_" gradientUnits="userSpaceOnUse" x1="0.5677" y1="215" x2="959.3995" y2="215">
		<stop  offset="0" style="stop-color:#FF0000"/>
		<stop  offset="1" style="stop-color:#FBB03B"/>
	</linearGradient>
	<polygon class="st2" points="959.4,376.3 459.8,402.5 0.6,430 0.7,2.1 959.4,0 	"/>
	<linearGradient id="SVGID_4_" gradientUnits="userSpaceOnUse" x1="0.2618" y1="199.5966" x2="959.5042" y2="199.5966">
		<stop  offset="0" style="stop-color:#FF0000"/>
		<stop  offset="1" style="stop-color:#FBB03B"/>
	</linearGradient>
	<polygon class="st3" points="958.7,347.9 459.3,373 0.3,399.2 0.7,0 959.5,0 	"/>
</g>
</svg>
