<!-- Generator: Adobe Illustrator 25.2.1, SVG Export Plug-In  -->
<svg version="1.1" xmlns="http://www.w3.org/2000/svg" xmlns:xlink="http://www.w3.org/1999/xlink" x="0px" y="0px" width="960.2px"
	 height="3113.1px" viewBox="0 0 960.2 3113.1" style="overflow:visible;enable-background:new 0 0 960.2 3113.1;"
	 xml:space="preserve">
<style type="text/css">
	.st0{fill:#282829;}
	.st1{opacity:0.3;}
	.st2{fill:none;stroke:#444444;stroke-width:0.7251;stroke-miterlimit:2.8;}
	.st3{fill:#7C7C7C;}
	.st4{fill:none;}
</style>
<defs>
</defs>
<g id="background_copy">
	<rect x="0.2" class="st0" width="960" height="3113.1"/>
	<g class="st1">
		<path class="st2" d="M756.2,360.5l196.1,22.9 M871.8,828.3L728.4,725.5l-154.4-55.3l-154.4-87.7l-196.8,43.8l186.6,118.6
			l-123.3,83l-63.3-201.5L3.1,551.8l265.1-81.3L1.1,360.7l285-107.6L17.1,55"/>
		<path class="st2" d="M3.1,360.5l363.9,23l111.9,86.9l155.8,79.8l-215.5,32L267.9,470.1 M464.3,846.2l-54.9-101.3"/>
		<path class="st2" d="M574.1,670.2L616.5,801l111.9-75.4l147.7-99.2l-241.4-76.2L574.1,670.2l-164.6,74.7l10.2-162.4l59.3-112.1
			l109-81.2l168.3-28.7L616.1,225.8l-151.8,45.6L407.3,59L286.1,253.1L367,383.5l-98.8,86.9l-45.4,155.9L102.7,738.9l183.8,89.3"/>
		<path class="st2" d="M547.7,64l69.2,162.5L843.3,75 M634.8,550.2L588,389.3l-221-5.7l97.3-112.1 M955.8,470.5L588,389.3
			 M478.9,470.5H268.2"/>
		<path class="st2" d="M2.1,227.3l284,25.8l178.2,18.3L588,389.3l28.2-163.5L957.3,168l-201,192.5l200.6,109.9l-322,79.8l93.7,175.3
			 M409.4,59l206.7,166.8 M616.5,801l-207.1-56 M222.9,51.6l63.7,201.9 M268.2,470.5L242,375.6"/>
		<line class="st2" x1="876.2" y1="626.5" x2="837.3" y2="500"/>
		<line class="st2" x1="876.2" y1="626.5" x2="957.8" y2="519.9"/>
		<line class="st2" x1="872.2" y1="828.5" x2="876.2" y2="626.5"/>
		<ellipse class="st3" cx="727.5" cy="725.9" rx="3.7" ry="3.6"/>
		<ellipse class="st3" cx="877.3" cy="626.7" rx="3.7" ry="3.6"/>
		<ellipse class="st3" cx="616.5" cy="801.3" rx="3.7" ry="3.6"/>
		<ellipse class="st3" cx="409.4" cy="745.5" rx="3.7" ry="3.6"/>
		<line class="st4" x1="871.7" y1="828" x2="616.8" y2="801.2"/>
		<line class="st4" x1="464.5" y1="846" x2="616.8" y2="801.2"/>
		<line class="st4" x1="286.3" y1="828" x2="464.5" y2="846"/>
		<line class="st2" x1="285.8" y1="827.5" x2="464" y2="846.5"/>
		<line class="st2" x1="616.3" y1="800.7" x2="464" y2="846.5"/>
		<line class="st2" x1="872.2" y1="828.5" x2="616.3" y2="800.7"/>
		<line class="st2" x1="727.8" y1="727" x2="743.8" y2="814.6"/>
		<line class="st2" x1="102.7" y1="738.9" x2="3.1" y2="551.8"/>
		<line class="st2" x1="285.8" y1="827.5" x2="345.6" y2="1052.5"/>
		<line class="st2" x1="464" y1="846.5" x2="345.6" y2="1052.5"/>
		<line class="st2" x1="616.3" y1="800.7" x2="592.5" y2="886.3"/>
		<line class="st2" x1="552.6" y1="819.6" x2="592.5" y2="886.3"/>
		<line class="st2" x1="464" y1="846.5" x2="592.5" y2="886.3"/>
		<line class="st2" x1="345.6" y1="1052.5" x2="145.5" y2="980.9"/>
		<line class="st2" x1="312.7" y1="929.1" x2="145.5" y2="980.9"/>
		<line class="st2" x1="285.8" y1="827.5" x2="145.5" y2="980.9"/>
		<line class="st2" x1="102.7" y1="738.9" x2="2.1" y2="766.8"/>
		<line class="st2" x1="313.7" y1="927.1" x2="335.6" y2="832.5"/>
		<line class="st2" x1="137.5" y1="755.9" x2="145.5" y2="980.9"/>
		<line class="st2" x1="313.7" y1="927.1" x2="417.2" y2="928.1"/>
		<line class="st2" x1="335.6" y1="832.5" x2="417.2" y2="928.1"/>
		<line class="st2" x1="592.5" y1="886.3" x2="417.2" y2="928.1"/>
		<line class="st2" x1="872.2" y1="828.5" x2="592.5" y2="886.3"/>
		<line class="st2" x1="616.3" y1="801.7" x2="702" y2="863.4"/>
		<line class="st2" x1="876.2" y1="626.5" x2="955.8" y2="752.9"/>
		<line class="st2" x1="872.2" y1="828.5" x2="955.8" y2="752.9"/>
		<line class="st2" x1="592.5" y1="886.3" x2="550.6" y2="1187.9"/>
		<line class="st2" x1="345.6" y1="1052.5" x2="550.6" y2="1187.9"/>
		<line class="st2" x1="702" y1="863.4" x2="956.8" y2="1027.6"/>
		<line class="st2" x1="872.2" y1="828.5" x2="856.3" y2="962.9"/>
		<line class="st2" x1="956.8" y1="893.2" x2="872.2" y2="828.5"/>
		<line class="st2" x1="856.3" y1="959.9" x2="956.8" y2="893.2"/>
		<line class="st2" x1="704.9" y1="865.4" x2="552.6" y2="1185.9"/>
		<line class="st2" x1="417.2" y1="928.1" x2="574.5" y2="1004.7"/>
		<line class="st2" x1="345.6" y1="1052.5" x2="574.5" y2="1004.7"/>
		<line class="st2" x1="683" y1="912.2" x2="747.8" y2="893.2"/>
		<line class="st2" x1="856.3" y1="962.9" x2="683" y2="912.2"/>
		<line class="st2" x1="574.5" y1="1004.7" x2="620.3" y2="1046.6"/>
		<line class="st2" x1="593.4" y1="890.3" x2="679.1" y2="912.2"/>
		<line class="st2" x1="574.5" y1="1004.7" x2="682" y2="914.2"/>
		<line class="st2" x1="145.5" y1="977.9" x2="2.1" y2="766.8"/>
		<line class="st2" x1="137.5" y1="755.9" x2="62.9" y2="749.9"/>
		<line class="st2" x1="620.3" y1="1046.6" x2="856.3" y2="959.9"/>
		<line class="st2" x1="552.6" y1="1185.9" x2="853.3" y2="960.9"/>
		<line class="st2" x1="724.9" y1="1059.5" x2="956.8" y2="1027.6"/>
		<ellipse class="st3" cx="222.8" cy="627.5" rx="3.7" ry="3.6"/>
		<ellipse class="st3" cx="573.5" cy="671.6" rx="3.7" ry="3.6"/>
		<ellipse class="st3" cx="407.8" cy="60.8" rx="3.7" ry="3.6"/>
		<ellipse class="st3" cx="956.3" cy="169" rx="3.7" ry="3.6"/>
		<ellipse class="st3" cx="955.3" cy="470.9" rx="3.7" ry="3.6"/>
		<ellipse class="st3" cx="835.9" cy="500.7" rx="3.7" ry="3.6"/>
		<ellipse class="st3" cx="3.7" cy="552.5" rx="3.7" ry="3.6"/>
		<ellipse class="st3" cx="588" cy="388.9" rx="3.7" ry="3.6"/>
		<ellipse class="st3" cx="955.3" cy="752" rx="3.7" ry="3.6"/>
		<ellipse class="st3" cx="336.2" cy="832.6" rx="3.7" ry="3.6"/>
		<ellipse class="st3" cx="147" cy="979.9" rx="3.7" ry="3.6"/>
		<ellipse class="st3" cx="592" cy="887.3" rx="3.7" ry="3.6"/>
		<ellipse class="st3" cx="313.3" cy="928.1" rx="3.7" ry="3.6"/>
		<ellipse class="st3" cx="416.8" cy="928.1" rx="3.7" ry="3.6"/>
		<ellipse class="st3" cx="681.6" cy="912.2" rx="3.7" ry="3.6"/>
		<ellipse class="st3" cx="702.5" cy="864.3" rx="3.7" ry="3.6"/>
		<ellipse class="st3" cx="852.8" cy="961.8" rx="3.7" ry="3.6"/>
		<ellipse class="st3" cx="346.1" cy="1051.4" rx="3.7" ry="3.6"/>
		<ellipse class="st3" cx="955.3" cy="894.2" rx="3.7" ry="3.6"/>
		<ellipse class="st3" cx="576.1" cy="1004.8" rx="3.7" ry="3.6"/>
		<ellipse class="st3" cx="618.9" cy="1045.6" rx="3.7" ry="3.6"/>
		<ellipse class="st3" cx="724.4" cy="1059.5" rx="3.7" ry="3.6"/>
		<ellipse class="st3" cx="551.2" cy="1187.3" rx="3.7" ry="3.6"/>
		<ellipse class="st3" cx="551.2" cy="1188.3" rx="3.7" ry="3.6"/>
		<ellipse class="st3" cx="286.4" cy="827.5" rx="3.7" ry="3.6"/>
		<ellipse class="st3" cx="553.2" cy="821.5" rx="3.7" ry="3.6"/>
		<ellipse class="st3" cx="464.6" cy="846.4" rx="3.7" ry="3.6"/>
		<ellipse class="st3" cx="102.3" cy="738.9" rx="3.7" ry="3.6"/>
		<ellipse class="st3" cx="190.9" cy="1179.9" rx="3.7" ry="3.6"/>
		<ellipse class="st3" cx="190.9" cy="1180.9" rx="3.7" ry="3.6"/>
		<ellipse class="st3" cx="137.1" cy="755.8" rx="3.7" ry="3.6"/>
		<ellipse class="st3" cx="77.4" cy="877.3" rx="3.7" ry="3.6"/>
		<ellipse class="st3" cx="77.4" cy="878.3" rx="3.7" ry="3.6"/>
		<ellipse class="st3" cx="77.4" cy="879.3" rx="3.7" ry="3.6"/>
		<line class="st4" x1="146" y1="980.4" x2="2.6" y2="1113.7"/>
		<line class="st4" x1="2.6" y1="965.4" x2="146" y2="980.4"/>
		<line class="st2" x1="76.8" y1="877.3" x2="3.1" y2="945"/>
		<line class="st2" x1="145.5" y1="980.9" x2="3.1" y2="945"/>
		<line class="st2" x1="345.6" y1="1052.5" x2="190.3" y2="1180.9"/>
		<line class="st2" x1="145.5" y1="980.9" x2="190.3" y2="1180.9"/>
		<line class="st2" x1="550.6" y1="1187.9" x2="464" y2="1228.7"/>
		<line class="st2" x1="470" y1="1135.2" x2="464" y2="1228.7"/>
		<line class="st2" x1="315.7" y1="1077.4" x2="373.4" y2="1070.4"/>
		<line class="st2" x1="464" y1="1228.7" x2="190.3" y2="1180.9"/>
		<line class="st2" x1="316.7" y1="1076.4" x2="326.7" y2="1204.8"/>
		<line class="st2" x1="373.4" y1="1070.4" x2="321.7" y2="1140.1"/>
		<line class="st2" x1="470" y1="1135.2" x2="389.4" y2="1215.8"/>
		<line class="st2" x1="372.5" y1="1072.4" x2="389.4" y2="1215.8"/>
		<line class="st2" x1="321.7" y1="1140.1" x2="389.4" y2="1215.8"/>
		<line class="st2" x1="641.2" y1="1120.2" x2="955.8" y2="1249.6"/>
		<line class="st2" x1="724.9" y1="1059.5" x2="727.8" y2="1156.1"/>
		<line class="st2" x1="862.2" y1="1040.6" x2="727.8" y2="1156.1"/>
		<line class="st2" x1="893.1" y1="1222.8" x2="862.2" y2="1040.6"/>
		<line class="st2" x1="956.8" y1="1027.6" x2="881.1" y2="1139.1"/>
		<line class="st2" x1="957.8" y1="1136.1" x2="893.1" y2="1220.8"/>
		<line class="st2" x1="881.1" y1="1139.1" x2="957.8" y2="1136.1"/>
		<line class="st2" x1="550.6" y1="1187.9" x2="720.9" y2="1436.8"/>
		<line class="st2" x1="892.1" y1="1223.8" x2="720.9" y2="1438.8"/>
		<line class="st2" x1="641.2" y1="1120.2" x2="720.9" y2="1438.8"/>
		<line class="st2" x1="619.3" y1="1289.5" x2="681.1" y2="1279.5"/>
		<line class="st2" x1="641.2" y1="1121.2" x2="619.3" y2="1289.5"/>
		<line class="st2" x1="464" y1="1228.7" x2="619.3" y2="1289.5"/>
		<ellipse class="st3" cx="64.4" cy="749.9" rx="3.7" ry="3.6"/>
		<ellipse class="st3" cx="321.3" cy="1141.1" rx="3.7" ry="3.6"/>
		<ellipse class="st3" cx="451.7" cy="1459.6" rx="3.7" ry="3.6"/>
		<ellipse class="st3" cx="641.8" cy="1122.2" rx="3.7" ry="3.6"/>
		<ellipse class="st3" cx="726.4" cy="1155" rx="3.7" ry="3.6"/>
		<ellipse class="st3" cx="891.7" cy="1221.7" rx="3.7" ry="3.6"/>
		<ellipse class="st3" cx="720.5" cy="1436.7" rx="3.7" ry="3.6"/>
		<ellipse class="st3" cx="618.9" cy="1289.4" rx="3.7" ry="3.6"/>
		<ellipse class="st3" cx="469.6" cy="1137.1" rx="3.7" ry="3.6"/>
		<ellipse class="st3" cx="390" cy="1216.7" rx="3.7" ry="3.6"/>
		<ellipse class="st3" cx="390" cy="1217.7" rx="3.7" ry="3.6"/>
		<ellipse class="st3" cx="881.7" cy="1138.1" rx="3.7" ry="3.6"/>
		<ellipse class="st3" cx="860.8" cy="1041.5" rx="3.7" ry="3.6"/>
		<ellipse class="st3" cx="316.3" cy="1076.4" rx="3.7" ry="3.6"/>
		<ellipse class="st3" cx="374" cy="1070.4" rx="3.7" ry="3.6"/>
		<ellipse class="st3" cx="746.3" cy="893.2" rx="3.7" ry="3.6"/>
		<ellipse class="st3" cx="681.6" cy="1280.5" rx="3.7" ry="3.6"/>
		<ellipse class="st3" cx="324.2" cy="1315.3" rx="3.7" ry="3.6"/>
		<ellipse class="st3" cx="163" cy="1424.8" rx="3.7" ry="3.6"/>
		<ellipse class="st3" cx="163" cy="1425.8" rx="3.7" ry="3.6"/>
		<ellipse class="st3" cx="551.2" cy="1359.1" rx="3.7" ry="3.6"/>
		<ellipse class="st3" cx="460.6" cy="1320.3" rx="3.7" ry="3.6"/>
		<ellipse class="st3" cx="548.2" cy="1262.5" rx="3.7" ry="3.6"/>
		<ellipse class="st3" cx="548.2" cy="1263.5" rx="3.7" ry="3.6"/>
		<ellipse class="st3" cx="464.6" cy="1228.7" rx="3.7" ry="3.6"/>
		<line class="st4" x1="189.8" y1="1180.4" x2="2.6" y2="944.5"/>
		<line class="st4" x1="146" y1="980.4" x2="103.2" y2="1020.2"/>
		<ellipse class="st3" cx="451.7" cy="1459.6" rx="3.7" ry="3.6"/>
		<ellipse class="st3" cx="451.7" cy="1460.1" rx="3.7" ry="3.1"/>
		<line class="st2" x1="145.5" y1="979.9" x2="3.1" y2="1118.2"/>
		<line class="st2" x1="189.3" y1="1179.9" x2="3.1" y2="1118.2"/>
		<line class="st2" x1="619.3" y1="1289.5" x2="452.1" y2="1459.7"/>
		<line class="st2" x1="390.4" y1="1217.8" x2="452.1" y2="1459.7"/>
		<line class="st2" x1="465" y1="1232.7" x2="452.1" y2="1459.7"/>
		<line class="st2" x1="549.6" y1="1262.6" x2="551.6" y2="1359.1"/>
		<line class="st2" x1="460.1" y1="1320.3" x2="551.6" y2="1359.1"/>
		<line class="st2" x1="549.6" y1="1262.6" x2="460.1" y2="1320.3"/>
		<line class="st2" x1="190.3" y1="1180.9" x2="321.7" y2="1316.3"/>
		<line class="st2" x1="390.4" y1="1217.8" x2="324.7" y2="1314.3"/>
		<line class="st2" x1="452.1" y1="1459.7" x2="324.7" y2="1314.3"/>
		<line class="st2" x1="3.1" y1="1537.3" x2="324.7" y2="1314.3"/>
		<line class="st2" x1="189.3" y1="1179.9" x2="161.4" y2="1425.8"/>
		<line class="st2" x1="452.1" y1="1459.7" x2="161.4" y2="1425.8"/>
		<line class="st2" x1="723.9" y1="1440.8" x2="454.1" y2="1461.7"/>
		<line class="st2" x1="160.4" y1="1426.8" x2="3.1" y2="1118.2"/>
		<line class="st2" x1="452.1" y1="1459.7" x2="317.7" y2="1496.5"/>
		<line class="st2" x1="306.7" y1="1442.8" x2="316.7" y2="1492.5"/>
		<line class="st2" x1="163.4" y1="1425.8" x2="159.4" y2="1662.8"/>
		<line class="st2" x1="3.1" y1="1539.3" x2="159.4" y2="1662.8"/>
		<line class="st2" x1="316.7" y1="1492.5" x2="159.4" y2="1662.8"/>
		<line class="st2" x1="452.1" y1="1459.7" x2="437.2" y2="1716.5"/>
		<line class="st2" x1="316.7" y1="1492.5" x2="435.2" y2="1715.5"/>
		<line class="st2" x1="161.4" y1="1663.8" x2="435.2" y2="1715.5"/>
		<line class="st2" x1="723.9" y1="1436.8" x2="437.2" y2="1714.5"/>
		<ellipse class="st3" cx="317.3" cy="1494.5" rx="3.7" ry="3.6"/>
		<ellipse class="st3" cx="306.3" cy="1442.7" rx="3.7" ry="3.6"/>
		<ellipse class="st3" cx="436.7" cy="1715.5" rx="3.7" ry="3.6"/>
		<ellipse class="st3" cx="161" cy="1661.7" rx="3.7" ry="3.6"/>
		<line class="st2" x1="892.1" y1="1225.7" x2="956.8" y2="1506.5"/>
		<line class="st2" x1="723.9" y1="1440.8" x2="958.8" y2="1505.5"/>
		<line class="st2" x1="437.2" y1="1716.5" x2="778.6" y2="1812.1"/>
		<line class="st2" x1="720.9" y1="1442.8" x2="780.6" y2="1810.1"/>
		<line class="st2" x1="958.8" y1="1505.5" x2="750.7" y2="1626.9"/>
		<line class="st2" x1="780.6" y1="1810.1" x2="956.8" y2="1506.5"/>
		<line class="st2" x1="437.2" y1="1716.5" x2="154.4" y2="1901.7"/>
		<line class="st2" x1="161.4" y1="1663.8" x2="154.4" y2="1901.7"/>
		<line class="st2" x1="3.1" y1="1759.3" x2="161.4" y2="1665.7"/>
		<line class="st2" x1="154.4" y1="1901.7" x2="3.1" y2="1759.3"/>
		<line class="st2" x1="435.2" y1="1715.5" x2="403.3" y2="1890.7"/>
		<line class="st2" x1="307.7" y1="1803.1" x2="403.3" y2="1890.7"/>
		<line class="st2" x1="778.6" y1="1812.1" x2="405.3" y2="1890.7"/>
		<line class="st2" x1="214.2" y1="1862.9" x2="403.3" y2="1890.7"/>
		<line class="st2" x1="152.4" y1="1899.7" x2="6.1" y2="2009.2"/>
		<line class="st2" x1="401.3" y1="1890.7" x2="365.5" y2="2158.5"/>
		<line class="st2" x1="8.1" y1="2007.2" x2="365.5" y2="2156.5"/>
		<line class="st2" x1="388.4" y1="1974.3" x2="247" y2="2102.8"/>
		<line class="st2" x1="152.4" y1="1899.7" x2="247" y2="2102.8"/>
		<line class="st2" x1="214.2" y1="1862.9" x2="383.4" y2="1975.3"/>
		<line class="st2" x1="248" y1="2098.8" x2="214.2" y2="1862.9"/>
		<line class="st2" x1="780.6" y1="1810.1" x2="368.5" y2="2153.5"/>
		<line class="st2" x1="403.3" y1="1890.7" x2="589.5" y2="1964.4"/>
		<line class="st2" x1="780.6" y1="1810.1" x2="956.8" y2="1770.3"/>
		<line class="st2" x1="592.5" y1="1964.4" x2="584.5" y2="2223.2"/>
		<line class="st2" x1="779.6" y1="1814.1" x2="956.8" y2="1986.3"/>
		<line class="st2" x1="681.1" y1="1893.7" x2="956.8" y2="1990.3"/>
		<line class="st2" x1="584.5" y1="2223.2" x2="365.5" y2="2156.5"/>
		<line class="st2" x1="592.5" y1="1964.4" x2="789.6" y2="1934.5"/>
		<line class="st2" x1="584.5" y1="2219.2" x2="789.6" y2="1934.5"/>
		<line class="st2" x1="718.9" y1="2033.1" x2="956.8" y2="1993.3"/>
		<line class="st2" x1="365.5" y1="2156.5" x2="138.5" y2="2252.1"/>
		<line class="st2" x1="153.4" y1="2070.9" x2="138.5" y2="2252.1"/>
		<line class="st2" x1="144.5" y1="2176.4" x2="8.1" y2="2009.2"/>
		<line class="st2" x1="78.8" y1="2096.8" x2="3.1" y2="2193.4"/>
		<line class="st2" x1="135.5" y1="2252.1" x2="3.1" y2="2193.4"/>
		<line class="st2" x1="78.8" y1="2098.8" x2="138.5" y2="2249.1"/>
		<line class="st2" x1="231.1" y1="2215.3" x2="340.6" y2="2380.5"/>
		<line class="st2" x1="365.5" y1="2156.5" x2="340.6" y2="2380.5"/>
		<line class="st2" x1="138.5" y1="2252.1" x2="6.1" y2="2382.5"/>
		<line class="st2" x1="337.6" y1="2380.5" x2="138.5" y2="2252.1"/>
		<line class="st2" x1="7.1" y1="2386.5" x2="337.6" y2="2380.5"/>
		<line class="st2" x1="582.5" y1="2222.2" x2="340.6" y2="2377.5"/>
		<ellipse class="st3" cx="750.3" cy="1627.9" rx="3.7" ry="3.6"/>
		<ellipse class="st3" cx="781.2" cy="1810.1" rx="3.7" ry="3.6"/>
		<ellipse class="st3" cx="780" cy="1812" rx="4.9" ry="4.6"/>
		<ellipse class="st3" cx="401.7" cy="1888.7" rx="4.9" ry="4.6"/>
		<ellipse class="st3" cx="214.5" cy="1862.8" rx="4.9" ry="4.6"/>
		<ellipse class="st3" cx="152.8" cy="1900.6" rx="4.9" ry="4.6"/>
		<ellipse class="st3" cx="452.5" cy="1461.6" rx="4.9" ry="4.6"/>
		<ellipse class="st3" cx="592.8" cy="1963.3" rx="4.9" ry="4.6"/>
		<ellipse class="st3" cx="790.9" cy="1932.5" rx="4.9" ry="4.6"/>
		<ellipse class="st3" cx="389.7" cy="1973.3" rx="4.9" ry="4.6"/>
		<ellipse class="st3" cx="248.4" cy="2102.7" rx="4.9" ry="4.6"/>
		<ellipse class="st3" cx="365.9" cy="2155.5" rx="4.9" ry="4.6"/>
		<ellipse class="st3" cx="79.2" cy="2096.7" rx="4.9" ry="4.6"/>
		<ellipse class="st3" cx="136.9" cy="2254" rx="4.9" ry="4.6"/>
		<ellipse class="st3" cx="580.9" cy="2222.2" rx="4.9" ry="4.6"/>
		<line class="st4" x1="583" y1="2221.7" x2="786.1" y2="2487.5"/>
		<line class="st4" x1="719.4" y1="2033.6" x2="792" y2="2486.5"/>
		<line class="st2" x1="718.9" y1="2033.1" x2="786.6" y2="2284.9"/>
		<line class="st2" x1="580.5" y1="2217.2" x2="786.6" y2="2284.9"/>
		<line class="st2" x1="956.8" y1="1993.3" x2="786.6" y2="2284.9"/>
		<line class="st2" x1="580.5" y1="2226.2" x2="604.4" y2="2392.5"/>
		<line class="st2" x1="786.6" y1="2284.9" x2="604.4" y2="2392.5"/>
		<line class="st2" x1="338.6" y1="2382.5" x2="374.4" y2="2639.3"/>
		<line class="st2" x1="7.1" y1="2386.5" x2="374.4" y2="2639.3"/>
		<line class="st2" x1="604.4" y1="2392.5" x2="477" y2="2294.9"/>
		<line class="st2" x1="374.4" y1="2635.4" x2="474" y2="2299.9"/>
		<line class="st2" x1="604.4" y1="2392.5" x2="425.2" y2="2463.1"/>
		<line class="st2" x1="785.6" y1="2285.9" x2="377.4" y2="2635.4"/>
		<line class="st2" x1="604.4" y1="2392.5" x2="377.4" y2="2635.4"/>
		<line class="st2" x1="786.6" y1="2284.9" x2="957.8" y2="2359.6"/>
		<line class="st2" x1="374.4" y1="2639.3" x2="3.1" y2="2774.7"/>
		<line class="st2" x1="557.6" y1="2485" x2="957.8" y2="2362.6"/>
		<line class="st2" x1="957.8" y1="2631.4" x2="557.6" y2="2485"/>
		<line class="st2" x1="791.6" y1="2413.4" x2="957.8" y2="2497"/>
		<line class="st2" x1="775.6" y1="2564.7" x2="791.6" y2="2418.3"/>
		<line class="st2" x1="957.8" y1="2497" x2="778.6" y2="2565.7"/>
		<line class="st2" x1="557.6" y1="2485" x2="521.8" y2="2803.6"/>
		<line class="st2" x1="374.4" y1="2635.4" x2="520.8" y2="2806.6"/>
		<line class="st2" x1="778.6" y1="2565.7" x2="520.8" y2="2806.6"/>
		<line class="st2" x1="957.8" y1="2635.4" x2="677.1" y2="2664.2"/>
		<line class="st2" x1="520.8" y1="2806.6" x2="9.1" y2="2779.7"/>
		<line class="st2" x1="253" y1="2555.7" x2="259" y2="2678.2"/>
		<line class="st2" x1="6.1" y1="2607.5" x2="248" y2="2558.7"/>
		<line class="st2" x1="253" y1="2676.2" x2="8.1" y2="2611.5"/>
		<line class="st2" x1="514.8" y1="2806.6" x2="427.2" y2="3103.2"/>
		<line class="st2" x1="256" y1="2795.6" x2="424.2" y2="3103.2"/>
		<line class="st2" x1="3.1" y1="3103.2" x2="259" y2="2795.6"/>
		<line class="st2" x1="13.1" y1="2779.7" x2="92.7" y2="2986.8"/>
		<line class="st2" x1="174.3" y1="2896.2" x2="307.7" y2="2890.2"/>
		<line class="st2" x1="516.8" y1="2807.6" x2="307.7" y2="2890.2"/>
		<line class="st2" x1="677.1" y1="2664.2" x2="431.2" y2="3093.3"/>
		<line class="st2" x1="957.8" y1="3096.3" x2="677.1" y2="2664.2"/>
		<line class="st2" x1="952.8" y1="2635.4" x2="828.4" y2="2886.2"/>
		<line class="st2" x1="561.6" y1="2875.3" x2="691" y2="3103.2"/>
		<line class="st2" x1="824.4" y1="2890.2" x2="565.6" y2="2875.3"/>
		<line class="st2" x1="696" y1="3099.3" x2="824.4" y2="2890.2"/>
		<ellipse class="st3" cx="339" cy="2378.4" rx="4.9" ry="4.6"/>
		<ellipse class="st3" cx="339" cy="2379.4" rx="4.9" ry="4.6"/>
		<ellipse class="st3" cx="475.4" cy="2296.8" rx="4.9" ry="4.6"/>
		<ellipse class="st3" cx="604.8" cy="2393.4" rx="4.9" ry="4.6"/>
		<ellipse class="st3" cx="374.8" cy="2635.3" rx="4.9" ry="4.6"/>
		<ellipse class="st3" cx="259.3" cy="2679.1" rx="4.9" ry="4.6"/>
		<ellipse class="st3" cx="249.4" cy="2555.6" rx="4.9" ry="4.6"/>
		<ellipse class="st3" cx="559" cy="2486" rx="4.9" ry="4.6"/>
		<ellipse class="st3" cx="424.6" cy="2463.1" rx="4.9" ry="4.6"/>
		<ellipse class="st3" cx="790.9" cy="2416.3" rx="4.9" ry="4.6"/>
		<ellipse class="st3" cx="679.4" cy="2660.2" rx="4.9" ry="4.6"/>
		<ellipse class="st3" cx="777" cy="2564.6" rx="4.9" ry="4.6"/>
		<ellipse class="st3" cx="519.2" cy="2806.5" rx="4.9" ry="4.6"/>
		<ellipse class="st3" cx="258.3" cy="2795.6" rx="4.9" ry="4.6"/>
		<ellipse class="st3" cx="12.5" cy="2780.6" rx="4.9" ry="4.6"/>
		<ellipse class="st3" cx="305.1" cy="2890.1" rx="4.9" ry="4.6"/>
		<ellipse class="st3" cx="174.7" cy="2896.1" rx="4.9" ry="4.6"/>
		<ellipse class="st3" cx="559" cy="2875.2" rx="4.9" ry="4.6"/>
		<ellipse class="st3" cx="825.8" cy="2890.1" rx="4.9" ry="4.6"/>
		<ellipse class="st3" cx="94.1" cy="2989.7" rx="4.9" ry="4.6"/>
		<ellipse class="st3" cx="786" cy="2281.9" rx="4.9" ry="4.6"/>
	</g>
	<g class="st1">
		<ellipse class="st3" cx="757.5" cy="355" rx="3.7" ry="3.6"/>
		<ellipse class="st3" cx="588.4" cy="383.9" rx="3.7" ry="3.6"/>
		<ellipse class="st3" cx="635.5" cy="545.6" rx="3.7" ry="3.6"/>
		<ellipse class="st3" cx="729.6" cy="721.7" rx="3.7" ry="3.6"/>
		<ellipse class="st3" cx="574.5" cy="666.1" rx="3.7" ry="3.6"/>
		<ellipse class="st3" cx="419.4" cy="578" rx="3.7" ry="3.6"/>
		<ellipse class="st3" cx="409.1" cy="741.2" rx="3.7" ry="3.6"/>
		<ellipse class="st3" cx="221.7" cy="622.1" rx="3.7" ry="3.6"/>
		<ellipse class="st3" cx="267.3" cy="465.4" rx="3.7" ry="3.6"/>
		<ellipse class="st3" cx="285.6" cy="247.5" rx="3.7" ry="3.6"/>
		<ellipse class="st3" cx="464.2" cy="265.5" rx="3.7" ry="3.6"/>
		<ellipse class="st3" cx="617.1" cy="220" rx="3.7" ry="3.6"/>
		<ellipse class="st3" cx="366.5" cy="378.1" rx="3.7" ry="3.6"/>
		<ellipse class="st3" cx="478.9" cy="465.4" rx="3.7" ry="3.6"/>
	</g>
</g>
</svg>
