<!-- Generator: Adobe Illustrator 25.2.1, SVG Export Plug-In  -->
<svg version="1.1" xmlns="http://www.w3.org/2000/svg" xmlns:xlink="http://www.w3.org/1999/xlink" x="0px" y="0px" width="113.7px"
	 height="140px" viewBox="0 0 113.7 140" style="overflow:visible;enable-background:new 0 0 113.7 140;" xml:space="preserve">
<style type="text/css">
	.st0{fill:#F4BD56;}
	.st1{fill:#FAD362;}
	.st2{fill:#484C5B;}
	.st3{fill:#D4D5DB;}
	.st4{fill:#4E5C7D;}
	.st5{fill:#4EBD9E;}
	.st6{fill:#EBEFF2;}
</style>
<defs>
</defs>
<g id="card_x27_s_icon_1_">
	<path class="st0" d="M113,44.3c-0.2-0.9,0-4.1,0-4.1s-1.1-2-2-2.3c-0.9-0.3-8.3-1.6-15-2.1C89.3,35.3,63.4,37,63.4,37
		c-5.1-1.2-10.3-2.1-11.4-2.3v11h30.4c9.5,0,14.5-4.2,16.4-4.4c1.9-0.2,3.6,0.2,4.2,1.1c0.6,0.9,3.6,4.1,7,4.2
		C113.4,46.8,113.1,45.2,113,44.3z"/>
	<path class="st1" d="M57.8,102.3c3.4-1.8,4.3-5.4,5.4-8.8c1.5-4.7,1.6-8.1-3.5-10.3c-7-3.1-16.2-5.6-23.9-5.7c-2.4,0-3.2-2.4-2.6-4
		H9.4C3.4,88.1,26.5,94.2,35.2,93c8.9-1.2,17.3,1.1,17.3,1.1c-5,5.6-13.4,27.4-13.4,27.4l8.6,1.7l2.3-4.1c0.9-3.4,3.9-7.8,7.3-12.4
		C56,105.6,55.7,103.3,57.8,102.3L57.8,102.3z"/>
	<path class="st0" d="M55.7,104.9c1.7-3.1,4.2-5.6,5.9-8.7c0.9-1.6,2.6-3.6,3-5.4c1.3-5.5-1-5.4-4.4-6.9c-8.6-3.9-19.6-6.4-29.1-6.8
		C29,77,28.1,75,28.5,73.4H9.4C3.4,88.1,26.5,94.2,35.2,93c8.9-1.2,17.3,1.1,17.3,1.1c-5,5.6-13.4,27.4-13.4,27.4l8.6,1.7l2.3-4.1
		c0.8-3,3.3-6.8,6.2-10.8C55.4,107.5,55,106.3,55.7,104.9L55.7,104.9z"/>
	<path class="st2" d="M33.3,73.4H9.4C3.4,88.1,26.5,94.2,35.2,93c8.9-1.2,17.3,1.1,17.3,1.1c-2,2.3-4.6,7.2-7,12.3
		c2.7,1.8,6.1,2.7,10,2.9c2.2-3,6.7-9,8.7-11.8c5.1-7.3,5-10.9,2.3-15.4c-1-1.8-5.4-3.6-10.3-5.2C48.9,74.5,41.1,73.4,33.3,73.4
		L33.3,73.4z"/>
	<path class="st3" d="M58.3,129.1c-2.7-0.2-6.1-4.6-7.1-7.4c-0.3-0.7-1-1.2-1.8-1c-1.7,0.4-4.7,0.6-8.6-1.4c-0.8-0.4-1.8,0-2.1,0.8
		l-2.7,6.7c0,0-0.9,2.6,4,4.9c4.9,2.3,7.9-0.1,11.9,1.3c4,1.5,11.7,1.2,13.1-0.9C66.5,130,61.6,129.4,58.3,129.1L58.3,129.1z"/>
	<path class="st2" d="M65,132.1c-1.4,2.1-9,3.1-13.1,1.7c-4-1.5-7.1,0.1-11.9-2.1c-4.9-2.3-4-4.9-4-4.9l0.2-0.6
		c0.1,0.9,0.7,2.6,4,4.2c4.9,2.3,7.9,0.7,11.9,2.1c3.9,1.4,11.2,0.5,12.9-1.5C65.3,131.3,65.3,131.7,65,132.1z"/>
	<path class="st1" d="M51.8,35.4c0,0-0.5-5.3,1.4-5.2c0,0,2.1,2.4,4.7,1.3c0,0,1.8-0.2,1.5-2.3c0,0,0-0.5,0.9-0.6c0,0,0.6-1,0.1-1.1
		c0,0,0.7-0.5,0.3-1.5c-0.3-1,0.5-1.3,1.3-1.1s1.3-0.9,0.1-2.1s-2.1-3-1.4-4.9c0.7-1.9,1.3-5.6-1.3-8.2C56.6,6.9,49.9,2.1,44.7,6
		s-7.2,7.6-5.9,13.3s2.9,6.9,2.9,6.9s0.1,5.9-1.4,8.2L51.8,35.4z"/>
	<path class="st4" d="M57.9,7.1c-1.6-1.5-3.3-2.6-7.7-3.3c0,0,0.6-2.9-4.5-3.7c-5.1-0.8-8.7,1.5-9.3,4.1c-0.6,2.6-1.8,5.5,0.2,7.3
		l1,1.1c0,0-0.9,4.4,0,6.1c0.9,1.6,1.6,2.9,1.6,6c0,0.9,1.7,1.9,2.6,1.4c0,0-0.8-5.7,3.6-7.4c2.1-0.8,3.7-0.6,4.9-0.2
		c0.7,0.3,1.4-0.3,1.3-1.1c-0.3-2.7,0.4-7.1,7.8-8C59.2,9.6,59.4,8.6,57.9,7.1z"/>
	<path class="st1" d="M113.6,45.9c-0.2-0.9,0-4.1,0-4.1s-1.1-2-2-2.3c-0.9-0.3-8.3-1.6-15-2.1c-6.7-0.5-32.6,1.2-32.6,1.2
		c-5.8-1.4-11.7-2.3-11.7-2.3l-0.2-5.8c0,0-1-0.6-2.2-1.4h-7.2c-0.2,1.2-0.8,2.4-1.5,3.3c-0.7,1-1.3,1.7-1.3,1.7
		c-7.9,3.1-15.7,15.4-15.7,15.4C18.5,66.6,12.3,64.8,6.2,70.9c-1.6,1.6-1.6,4.2-3.1,7.5c-7.5,15.4,15.6,19.9,24.5,18.7
		c8.9-1.2,17.5,2.3,17.5,2.3c-2,2.2-5.5,7.3-7.8,12.3c-3.5,7.5-6.5,15.3-6.5,15.3l8.6,1.7l2.3-4.1c0.9-3.4,3.9-7.8,7.3-12.4
		c-1.7-0.5-2.9-2.2-1.6-4c2.5-3.5,6.8-6.8,8.4-10.7c2.5-6-1.8-7.7-6.4-8.7c-6.9-1.5-13-2.5-18.9-6.8c-1.8-1.3-2-4.8,0.7-5.3
		c0.7-0.1,1.4-0.2,2.1-0.3C36.4,73.2,43,66,46.1,61.7c4.2-5.6,2.5-14.5,2.5-14.5s24.9,0,34.4,0s14.5-4.2,16.4-4.4s3.6,0.2,4.2,1.1
		c0.6,0.9,3.6,4.1,7,4.2C114.1,48.4,113.8,46.8,113.6,45.9L113.6,45.9z"/>
	<path class="st4" d="M31.6,78.3c0,0,2-10.9,6.2-16.5c0.8-1,0.8-0.1,1.2-1.2L26.2,63c-4.6,7.7-15.3,3.2-20,7.9
		c-1.6,1.6-3.2,3.8-4.8,7c-7.5,15.4,16.5,21.8,25.4,20.6c8.9-1.2,17.3,1.1,17.3,1.1c-2,2.3-4.6,7.2-7,12.3c2.7,1.8,6.1,2.7,10,2.9
		c2.2-3,6.7-9,8.7-11.8c5.1-7.3,5-10.9,2.3-15.4C55.5,83.1,31.6,78.3,31.6,78.3L31.6,78.3z"/>
	<path class="st5" d="M46.1,61.7c-4.2,5.6-14.5,16.5-14.5,16.5S12,80.6,6.2,70.9c6.1-6.1,12.3-4.4,18.1-21.5c0,0,7.8-12.3,15.7-15.4
		c0,0,0.3-0.7,1-1.7l2.7,4.7c0,0-4.1-1-6.2,0c-2.1,1-8.3,7.4-8.1,10.2c0.1,2.8,3.4,7.8,10.2,4.1c6.8-3.7,9-4.1,9-4.1
		S50.3,56.1,46.1,61.7L46.1,61.7z"/>
	<path class="st6" d="M49.9,134.6c-2.7-0.2-6.1-4.6-7.1-7.4c-0.3-0.7-1-1.2-1.8-1c-1.7,0.4-4.7,0.6-8.6-1.4c-0.8-0.4-1.8,0-2.1,0.8
		l-2.7,6.7c0,0-0.8,2,4.1,4.3c4.9,2.3,7.9,0.7,11.9,2.1c4,1.5,11.5,1,12.9-1.1C58,135.5,53.2,134.9,49.9,134.6z"/>
	<path class="st4" d="M56.6,137.6c-1.4,2.1-9,3.1-13.1,1.7c-4-1.5-7.1,0.1-11.9-2.1c-4.9-2.3-4-4.9-4-4.9l0.2-0.6
		c0.1,0.9,0.7,2.6,4,4.2c4.9,2.3,7.9,0.7,11.9,2.1c3.9,1.4,11.2,0.5,12.9-1.5C56.9,136.9,56.9,137.2,56.6,137.6z"/>
</g>
</svg>
